<svg width="36" height="36" viewBox="0 0 36 36" fill="none"
  xmlns="http://www.w3.org/2000/svg">
  <g clip-path="url(#clip0_0_3)">
    <path d="M0 11.952C0 2.10953 2.10953 0 11.952 0H24.048C33.8905 0 36 2.10953 36 11.952V24.048C36 33.8905 33.8905 36 24.048 36H11.952C2.10953 36 0 33.8905 0 24.048V11.952Z" fill="#0B0C0F"/>
    <path d="M2.9375 25V10.4545H9.24432C10.3523 10.4545 11.2827 10.6037 12.0355 10.902C12.7931 11.2003 13.3636 11.6217 13.7472 12.1662C14.1354 12.7107 14.3295 13.3523 14.3295 14.0909C14.3295 14.6259 14.2112 15.1136 13.9744 15.554C13.7424 15.9943 13.4157 16.3636 12.9943 16.6619C12.5729 16.9555 12.0805 17.1591 11.517 17.2727V17.4148C12.142 17.4384 12.7102 17.5971 13.2216 17.8906C13.733 18.1795 14.1402 18.5795 14.4432 19.0909C14.7462 19.5975 14.8977 20.1941 14.8977 20.8807C14.8977 21.6761 14.6894 22.384 14.2727 23.0043C13.8608 23.6245 13.2737 24.1122 12.5114 24.4673C11.7491 24.8224 10.84 25 9.78409 25H2.9375ZM6.88636 21.8466H8.73295C9.39583 21.8466 9.89299 21.7235 10.2244 21.4773C10.5559 21.2263 10.7216 20.857 10.7216 20.3693C10.7216 20.0284 10.6435 19.7396 10.4872 19.5028C10.331 19.2661 10.1084 19.0862 9.8196 18.9631C9.53551 18.84 9.19224 18.7784 8.78977 18.7784H6.88636V21.8466ZM6.88636 16.3352H8.50568C8.85133 16.3352 9.15672 16.2808 9.42188 16.1719C9.68703 16.063 9.89299 15.9067 10.0398 15.7031C10.1913 15.4948 10.267 15.2415 10.267 14.9432C10.267 14.4934 10.1061 14.1501 9.78409 13.9134C9.46212 13.6719 9.05492 13.5511 8.5625 13.5511H6.88636V16.3352ZM16.2969 10.4545H21.2116L24.5923 18.6932H24.7628L28.1435 10.4545H33.0582V25H29.1946V16.5909H29.081L25.8423 24.8864H23.5128L20.2741 16.5341H20.1605V25H16.2969V10.4545Z" fill="#F2F4FB"/>
  </g>
  <defs>
    <clipPath id="clip0_0_3">
      <rect width="36" height="36" rx="8" fill="white"/>
    </clipPath>
  </defs>
</svg>
